<?xml version="1.0" standalone="no"?>
<!DOCTYPE svg PUBLIC "-//W3C//DTD SVG 20010904//EN"
 "http://www.w3.org/TR/2001/REC-SVG-20010904/DTD/svg10.dtd">
<svg version="1.0" xmlns="http://www.w3.org/2000/svg"
 width="500.000000pt" height="500.000000pt" viewBox="0 0 500.000000 500.000000"
 preserveAspectRatio="xMidYMid meet">

<g transform="translate(0.000000,500.000000) scale(0.100000,-0.100000)"
fill="#000000" stroke="none">
<path d="M2875 4613 c-27 -2 -59 -7 -70 -12 -11 -5 -52 -14 -91 -20 -100 -15
-287 -85 -404 -150 -36 -20 -76 -41 -90 -47 -79 -35 -102 -44 -115 -44 -8 0
-14 -3 -12 -7 1 -5 0 -8 -3 -8 -3 -1 -41 -29 -85 -63 -44 -35 -99 -77 -122
-95 -23 -18 -46 -42 -52 -55 -6 -12 -16 -21 -22 -20 -6 2 -13 -5 -14 -16 -2
-10 -20 -36 -40 -56 -21 -21 -34 -43 -31 -48 3 -6 1 -14 -5 -18 -8 -4 -9 -3
-5 4 4 7 4 12 -1 12 -8 0 -23 -29 -93 -183 -22 -49 -47 -96 -56 -105 -8 -9
-38 -42 -67 -71 -29 -30 -42 -47 -29 -36 44 36 31 7 -18 -41 -68 -65 -66 -63
-101 -108 -16 -22 -37 -56 -47 -75 -9 -20 -21 -41 -27 -47 -5 -6 -10 -33 -10
-60 0 -31 -5 -53 -14 -60 -8 -6 -16 -22 -18 -34 -2 -13 -9 -30 -16 -38 -6 -8
-12 -20 -12 -26 -4 -56 -33 -101 -73 -111 -42 -10 -93 -45 -85 -58 4 -7 0 -7
-9 1 -15 12 -19 9 -33 -17 -8 -17 -21 -31 -27 -31 -6 0 -8 -3 -5 -7 4 -3 15 1
26 11 18 16 19 16 19 -7 0 -13 -6 -24 -12 -24 -26 -1 -93 -24 -111 -38 -19
-15 -19 -15 5 -4 14 7 44 16 68 19 l43 7 -29 -31 c-17 -17 -33 -41 -37 -53 -3
-13 -11 -22 -18 -20 -6 1 -13 -8 -15 -21 -2 -16 -8 -22 -18 -18 -8 3 -14 1
-14 -5 0 -6 -5 -7 -11 -4 -5 4 -18 0 -27 -8 -25 -21 -79 -47 -85 -41 -7 7 -52
-77 -49 -90 2 -4 -5 -14 -14 -21 -11 -7 -17 -25 -16 -45 1 -42 9 -49 21 -18
10 26 56 68 74 68 6 0 2 -9 -7 -19 -10 -11 -15 -25 -11 -31 3 -6 3 -9 -2 -8
-4 2 -24 -9 -43 -24 -32 -24 -90 -52 -95 -46 -1 2 -8 12 -14 23 -9 15 -11 16
-7 3 3 -10 1 -18 -4 -18 -4 0 -14 -16 -20 -35 -6 -19 -15 -33 -20 -30 -4 3
-27 -2 -51 -10 -54 -20 -115 -83 -129 -136 -17 -62 7 -190 39 -215 10 -8 11
-13 3 -18 -7 -4 -12 -12 -12 -19 0 -8 3 -8 12 1 16 16 28 15 28 -1 0 -7 -11
-14 -26 -15 -14 -1 -34 -6 -44 -12 -10 -5 -35 -10 -54 -10 -20 0 -44 -4 -54
-9 -9 -6 -42 -21 -73 -35 -76 -34 -111 -73 -150 -169 l-34 -82 -3 -802 -2
-803 2349 0 2350 0 -13 38 c-8 20 -34 90 -60 154 -25 65 -51 139 -57 165 -7
27 -25 74 -41 106 -37 75 -54 202 -39 291 6 35 11 79 11 98 0 24 5 38 16 42
13 5 14 9 5 20 -9 11 -7 15 9 19 32 8 27 63 -9 96 -17 14 -33 38 -36 53 -6 21
-3 27 16 33 18 6 28 2 43 -18 17 -21 28 -25 58 -23 41 3 68 20 68 43 0 26 31
62 47 56 13 -5 15 -2 10 11 -5 13 -1 19 13 23 24 6 24 4 5 39 -9 18 -23 29
-37 29 -20 0 -24 7 -30 50 -7 50 -10 54 -73 98 -16 12 -25 27 -25 45 0 32 -16
52 -43 52 -10 0 -28 6 -40 12 -12 7 -33 13 -47 13 -17 0 -29 9 -40 30 -8 17
-18 32 -22 35 -3 3 -18 61 -32 130 -14 68 -34 140 -44 159 -10 20 -26 50 -35
66 -8 17 -27 55 -40 85 -54 121 -92 197 -124 244 -18 26 -33 54 -33 61 0 6
-23 59 -51 116 -28 57 -59 127 -69 154 -18 49 -53 199 -66 280 -3 22 -18 87
-34 145 -24 89 -30 139 -39 322 -6 119 -18 250 -26 290 -8 40 -21 145 -29 233
-18 191 -30 233 -69 254 -90 49 -144 124 -159 219 -5 37 -14 72 -20 79 -5 7
-33 20 -61 29 -31 10 -70 34 -99 61 -46 44 -48 45 -83 33 -28 -9 -44 -9 -83 4
-54 18 -217 47 -247 44 -11 -1 -42 -3 -70 -5z m-189 -389 c-8 -8 -22 -14 -31
-14 -14 0 -12 4 6 19 27 22 47 18 25 -5z m503 -41 c15 -15 31 -21 43 -18 12 4
18 1 18 -9 0 -9 7 -16 15 -16 8 0 28 -13 45 -30 17 -16 36 -30 43 -30 7 0 24
-18 37 -40 14 -22 32 -40 40 -40 24 0 44 -81 35 -143 -10 -76 -9 -107 6 -154
16 -52 7 -63 -32 -40 -38 21 -68 22 -75 2 -4 -8 -13 -15 -21 -15 -12 0 -11 -3
3 -17 11 -11 13 -18 5 -21 -19 -6 -12 -32 8 -32 30 0 51 -11 51 -26 0 -7 18
-18 39 -25 29 -9 41 -18 46 -37 7 -28 -9 -44 -34 -34 -9 3 -13 1 -8 -3 8 -10
-57 -35 -90 -35 -31 0 -29 -12 7 -32 35 -20 41 -43 9 -33 -40 13 -124 54 -111
54 7 1 11 5 7 10 -3 6 10 22 30 38 19 15 35 32 35 36 0 14 -90 47 -143 53 -64
7 -107 -8 -107 -36 0 -11 7 -23 15 -26 8 -4 13 -15 11 -27 -3 -16 13 -38 60
-82 53 -50 64 -66 64 -93 0 -42 -34 -92 -93 -137 -51 -39 -55 -49 -30 -77 14
-16 15 -21 3 -44 -12 -21 -19 -25 -43 -20 -17 4 -26 2 -22 -4 3 -6 17 -10 31
-10 38 0 59 -15 93 -66 28 -43 40 -84 25 -84 -3 0 -17 14 -31 30 -23 28 -53
40 -53 22 0 -15 -46 -31 -61 -21 -8 5 -25 9 -39 9 -14 0 -42 9 -62 20 -21 11
-63 22 -95 25 l-58 5 50 -16 c28 -8 58 -19 67 -24 10 -6 27 -10 38 -10 28 0
122 -43 139 -64 12 -15 13 -21 2 -38 -11 -18 -9 -24 13 -47 18 -19 23 -30 16
-41 -14 -22 -12 -56 5 -70 17 -14 20 -50 5 -50 -5 0 -10 -12 -10 -26 0 -17 -6
-28 -20 -31 -26 -7 -46 -40 -55 -91 -18 -107 -113 -153 -230 -111 -132 46
-185 58 -193 43 -6 -12 -15 -10 -47 6 -50 26 -55 25 -55 -4 0 -21 6 -25 41
-31 24 -4 39 -12 37 -18 -2 -7 6 -23 19 -36 13 -13 23 -19 23 -13 0 7 5 12 10
12 6 0 10 -9 10 -20 0 -11 -4 -20 -10 -20 -5 0 0 -10 11 -21 20 -20 20 -23 5
-31 -9 -5 -22 -6 -29 -3 -6 4 -3 -1 7 -9 11 -9 18 -18 15 -20 -16 -16 -89 -4
-89 15 0 5 -12 9 -27 9 -22 0 -34 9 -55 44 -16 24 -28 46 -28 50 0 4 -10 16
-22 27 -19 15 -20 20 -9 28 8 5 12 15 9 23 -3 8 4 18 18 25 13 6 24 7 24 2 0
-5 7 -9 15 -9 18 0 19 8 3 23 -7 7 -27 12 -45 12 -26 0 -36 7 -55 38 -24 40
-47 52 -77 42 -12 -3 -21 0 -25 10 -3 8 -12 15 -20 15 -9 0 -18 11 -22 25 -3
14 -12 25 -19 25 -14 0 -114 107 -159 170 -14 19 -33 46 -43 59 -16 22 -16 24
8 42 21 16 23 21 11 40 -11 18 -11 24 2 38 18 20 21 57 6 66 -5 3 -10 17 -10
29 0 13 -6 29 -14 35 -17 14 -10 88 9 111 8 8 13 34 12 58 -2 36 1 42 16 38
13 -3 17 2 17 28 0 18 -4 36 -10 42 -10 10 -2 54 10 54 5 0 12 24 15 54 5 35
11 53 19 50 6 -2 22 13 35 33 13 21 26 32 28 26 5 -13 7 -12 71 20 72 36 227
4 332 -67 41 -28 52 -31 125 -30 86 0 179 23 214 52 19 15 21 21 12 44 -9 24
-15 27 -46 24 -20 -2 -38 -6 -42 -9 -9 -9 -44 12 -42 26 1 7 -4 26 -10 44 -13
33 -40 48 -103 56 -35 5 -36 4 -28 -17 8 -22 8 -22 -53 -13 -34 6 -64 12 -67
14 -8 7 24 23 50 24 22 0 21 2 -10 14 -50 19 -90 18 -127 -5 -23 -14 -33 -27
-33 -45 0 -25 -9 -29 -58 -25 -45 3 -171 -47 -165 -67 2 -6 -1 -14 -6 -18 -7
-3 -11 2 -11 14 0 11 5 23 11 27 7 4 9 20 6 40 -9 53 65 186 93 169 5 -3 24 0
42 8 92 39 138 54 138 46 0 -6 6 -7 13 -2 16 10 177 10 170 1 -2 -5 9 -8 25
-8 16 0 46 -7 65 -15 20 -8 41 -15 47 -15 16 0 12 30 -5 36 -8 4 -15 10 -15
16 0 5 5 6 11 2 7 -4 25 -7 41 -6 15 0 26 -2 24 -6 -2 -4 14 -8 35 -9 96 -6 6
41 -123 63 -49 8 -96 13 -104 10 -8 -3 -14 -1 -14 5 0 19 -224 -18 -275 -45
-40 -21 -44 -12 -10 21 15 16 32 40 37 56 6 15 16 27 24 27 12 0 18 11 16 31
-1 4 12 9 28 13 17 3 30 12 30 20 0 9 9 20 20 26 11 6 20 17 20 25 0 7 11 22
25 33 15 12 23 26 20 35 -4 10 3 16 23 20 16 3 41 9 56 13 22 5 26 3 26 -17
l0 -23 17 24 c21 29 51 60 59 60 4 0 1 -6 -5 -13 -9 -11 0 -14 46 -16 32 -1
62 -6 67 -11 18 -18 68 -10 101 14 21 16 39 22 57 19 14 -3 29 0 32 6 8 13 80
-22 115 -56z m-448 -590 c12 3 22 0 26 -9 3 -8 13 -14 22 -15 12 0 12 -2 -4
-9 -27 -12 -97 -12 -115 0 -12 7 -12 12 4 29 15 16 22 18 32 10 8 -6 23 -9 35
-6z m-141 -43 c0 -13 -11 -13 -30 0 -12 8 -11 10 8 10 12 0 22 -4 22 -10z
m142 -54 c11 -16 4 -17 -42 -7 -65 15 -77 34 -15 25 28 -4 53 -12 57 -18z
m598 -166 c0 -5 -4 -10 -10 -10 -5 0 -10 5 -10 10 0 6 5 10 10 10 6 0 10 -4
10 -10z m98 -62 c19 -19 14 -30 -10 -22 -29 8 -31 10 -23 23 8 14 18 14 33 -1z
m-160 -126 c4 -43 -21 -82 -53 -82 -14 0 -25 4 -25 10 0 5 -13 7 -29 4 -31 -6
-51 10 -33 28 7 7 17 6 32 -2 17 -9 21 -9 19 2 -3 28 2 38 21 38 14 0 20 7 20
21 0 15 5 20 23 17 17 -2 23 -11 25 -36z m101 -26 c15 -8 37 -13 47 -10 29 7
47 -11 49 -48 2 -18 7 -56 13 -84 18 -87 -1 -264 -29 -264 -5 0 -9 -6 -9 -13
0 -20 -52 -46 -57 -29 -3 6 -15 12 -28 12 -22 0 -37 -27 -40 -70 -3 -58 -56
-140 -91 -140 -16 0 -20 9 -22 57 -2 31 1 59 7 62 6 4 12 35 15 70 5 65 17 91
44 91 15 0 15 1 -3 167 -2 17 -11 47 -19 67 -15 35 -14 36 20 77 19 22 34 47
34 55 0 18 33 18 69 0z m-2579 -496 c0 -5 -5 -10 -11 -10 -5 0 -7 5 -4 10 3 6
8 10 11 10 2 0 4 -4 4 -10z m60 -4 c0 -2 -7 -6 -15 -10 -8 -3 -15 -1 -15 4 0
6 7 10 15 10 8 0 15 -2 15 -4z m1797 -312 c-3 -3 -12 -4 -19 -1 -8 3 -5 6 6 6
11 1 17 -2 13 -5z m-2161 -89 c-4 -12 -2 -13 13 -6 10 6 21 7 25 4 16 -16 3
-45 -34 -74 -22 -18 -37 -36 -34 -41 3 -4 -1 -15 -9 -23 -9 -8 -18 -20 -20
-27 -8 -20 -27 11 -27 44 0 44 20 78 47 78 12 0 23 5 23 10 0 6 -5 10 -12 10
-6 0 -3 9 7 20 22 24 29 26 21 5z m-94 -32 c-6 -15 -13 -37 -15 -48 -3 -12 -5
-7 -6 13 -1 34 16 78 26 68 3 -3 1 -18 -5 -33z m1998 -79 c47 -16 110 -51 121
-67 3 -5 9 -8 13 -8 3 1 10 1 14 1 8 0 52 -97 52 -114 0 -4 11 -17 25 -28 28
-22 32 -43 11 -51 -16 -6 -10 -54 10 -78 8 -8 14 -33 14 -55 -1 -21 -1 -56 -1
-77 0 -38 -38 -116 -79 -159 -11 -12 -20 -32 -20 -45 0 -14 -4 -21 -10 -18
-21 13 -9 -15 18 -42 l27 -28 -25 -3 c-31 -4 -50 -28 -50 -64 0 -22 -3 -26
-18 -20 -41 17 -255 157 -348 229 -203 156 -264 204 -264 206 0 2 10 3 22 4
12 1 33 11 47 23 15 11 36 24 48 30 32 14 58 57 44 73 -8 10 -6 19 9 35 16 17
18 26 10 47 -10 28 6 35 28 13 9 -9 12 -9 12 3 1 19 38 45 89 60 31 9 52 24
72 52 16 22 29 45 29 50 0 13 32 46 45 46 6 1 30 -6 55 -15z m-356 -239 c-4
-8 -8 -15 -10 -15 -2 0 -4 7 -4 15 0 8 4 15 10 15 5 0 7 -7 4 -15z m2580 -501
c3 -8 2 -12 -4 -9 -6 3 -10 10 -10 16 0 14 7 11 14 -7z m36 -26 c0 -7 -4 -19
-9 -27 -11 -17 -25 3 -17 24 7 18 26 20 26 3z"/>
<path d="M3312 3700 c0 -14 2 -19 5 -12 2 6 2 18 0 25 -3 6 -5 1 -5 -13z"/>
<path d="M2885 3348 c-41 -27 -65 -54 -65 -73 0 -4 13 4 29 18 16 13 50 33 75
43 25 11 46 24 46 29 0 21 -40 13 -85 -17z"/>
<path d="M2937 3238 l-27 -10 25 -20 c20 -15 34 -18 64 -13 24 4 42 2 46 -4 8
-14 25 -14 25 -1 0 6 -6 9 -12 8 -7 -2 -13 5 -13 15 0 35 -50 46 -108 25z"/>
<path d="M2616 2954 c-25 -25 -19 -41 19 -48 65 -11 110 -16 98 -10 -20 9 -15
24 7 24 11 0 20 5 20 10 0 6 -11 10 -25 10 -14 0 -42 7 -62 15 -43 18 -38 18
-57 -1z"/>
<path d="M2580 2189 c0 -5 5 -7 10 -4 6 3 10 8 10 11 0 2 -4 4 -10 4 -5 0 -10
-5 -10 -11z"/>
<path d="M3330 2766 c0 -16 21 -56 30 -56 6 0 4 12 -5 30 -14 27 -25 38 -25
26z"/>
<path d="M2111 1874 c0 -11 3 -14 6 -6 3 7 2 16 -1 19 -3 4 -6 -2 -5 -13z"/>
<path d="M1156 3118 c-33 -33 -54 -63 -95 -130 -38 -63 -16 -43 27 25 22 34
57 79 77 100 21 20 35 37 31 37 -4 0 -22 -15 -40 -32z"/>
<path d="M341 1976 c-10 -12 -8 -13 8 -9 12 3 18 9 15 14 -7 12 -10 11 -23 -5z"/>
<path d="M4720 1343 c0 -6 5 -15 11 -18 6 -4 8 -13 5 -21 -3 -8 -1 -14 4 -14
6 0 10 6 10 13 0 17 -29 56 -30 40z"/>
</g>
</svg>
